<?xml version="1.0" encoding="UTF-8" standalone="no"?><!DOCTYPE svg PUBLIC "-//W3C//DTD SVG 1.1//EN" "http://www.w3.org/Graphics/SVG/1.1/DTD/svg11.dtd"><svg width="100%" height="100%" viewBox="0 0 16 16" version="1.1" xmlns="http://www.w3.org/2000/svg" xmlns:xlink="http://www.w3.org/1999/xlink" xml:space="preserve" xmlns:serif="http://www.serif.com/" style="fill-rule:evenodd;clip-rule:evenodd;stroke-linejoin:round;stroke-miterlimit:2;"><path d="M4.576,15.36l-4.576,0l0,-15.36l15.36,0l0,15.36l-4.116,0l-0.03,-0.651c-0.183,-3.542 -0.396,-6.109 -0.569,-6.79c-0.046,-0.168 -0.137,-0.417 -0.203,-0.554l-0.127,-0.244l0.335,-0.335l0.33,-0.335l0.534,-0.046c0.534,-0.051 0.534,-0.046 0.691,0.081c0.086,0.071 0.198,0.132 0.249,0.132c0.142,0 0.254,-0.056 0.254,-0.122c0,-0.036 0.071,-0.112 0.158,-0.178c0.081,-0.061 0.142,-0.142 0.132,-0.173c-0.01,-0.036 0.036,-0.127 0.102,-0.208c0.132,-0.158 0.137,-0.361 0.015,-0.366c-0.041,0 -0.117,-0.02 -0.163,-0.041c-0.112,-0.051 -0.254,-0.02 -0.28,0.056c-0.01,0.03 0.03,0.076 0.097,0.097c0.112,0.041 0.112,0.041 -0.036,0.071c-0.107,0.02 -0.152,0.056 -0.152,0.127c0,0.142 -0.158,0.158 -0.193,0.02c-0.041,-0.142 -0.158,-0.097 -0.178,0.071c-0.015,0.137 -0.02,0.137 -0.422,0.137c-0.219,0 -0.402,-0.015 -0.402,-0.041c0.005,-0.066 0.447,-0.386 0.569,-0.402c0.066,-0.01 0.203,-0.02 0.31,-0.015c0.28,0.005 0.473,-0.152 0.564,-0.462c0.041,-0.137 0.112,-0.3 0.152,-0.361c0.158,-0.224 0.061,-0.696 -0.097,-0.483c-0.036,0.046 -0.076,0.071 -0.091,0.051c-0.02,-0.015 0.056,-0.117 0.163,-0.224c0.203,-0.203 0.351,-0.478 0.29,-0.539c-0.02,-0.02 -0.091,0.03 -0.158,0.112l-0.122,0.152l-0.005,-0.183c0,-0.097 -0.03,-0.219 -0.066,-0.274c-0.102,-0.132 -0.203,-0.051 -0.163,0.132c0.046,0.203 -0.036,0.188 -0.219,-0.046c-0.112,-0.137 -0.173,-0.173 -0.213,-0.132c-0.081,0.081 0.01,0.285 0.198,0.442c0.193,0.158 0.198,0.254 0.03,0.33c-0.127,0.061 -0.132,0.056 -0.102,-0.107c0.03,-0.147 0.015,-0.168 -0.122,-0.224c-0.127,-0.046 -0.158,-0.086 -0.158,-0.208c0,-0.158 -0.112,-0.295 -0.193,-0.244c-0.03,0.015 -0.086,-0.025 -0.132,-0.097c-0.142,-0.219 -0.305,-0.147 -0.183,0.081c0.036,0.066 0.036,0.097 0.005,0.097c-0.03,0 -0.091,-0.071 -0.132,-0.152c-0.046,-0.086 -0.102,-0.142 -0.127,-0.127c-0.081,0.051 -0.056,0.244 0.051,0.422c0.132,0.219 0.127,0.325 -0.025,0.468c-0.122,0.112 -0.127,0.117 -0.127,0.015c0,-0.173 -0.066,-0.178 -0.137,-0.01c-0.132,0.31 -0.127,0.102 0.005,-0.229c0.147,-0.371 0.168,-0.539 0.056,-0.539c-0.081,0 -0.295,0.31 -0.412,0.595c-0.041,0.091 -0.091,0.163 -0.112,0.163c-0.142,-0.025 -0.173,0.01 -0.142,0.168c0.025,0.158 0.025,0.163 -0.046,0.071c-0.112,-0.147 -0.097,-0.371 0.025,-0.437c0.056,-0.03 0.102,-0.107 0.102,-0.173c0,-0.076 0.036,-0.132 0.102,-0.147c0.137,-0.036 0.127,-0.117 -0.03,-0.224c-0.076,-0.046 -0.168,-0.163 -0.203,-0.254c-0.076,-0.173 -0.173,-0.224 -0.173,-0.091c0,0.097 -0.183,0.198 -0.229,0.127c-0.061,-0.102 -0.132,0.01 -0.102,0.152c0.025,0.112 0.01,0.158 -0.066,0.198c-0.117,0.061 -0.203,0.442 -0.122,0.523c0.056,0.056 0.203,-0.066 0.31,-0.244c0.03,-0.056 0.056,-0.071 0.056,-0.036c0,0.036 -0.081,0.203 -0.183,0.376c-0.203,0.341 -0.193,0.341 -0.396,-0.056c-0.203,-0.391 -0.208,-0.442 -0.03,-0.473c0.178,-0.036 0.346,-0.32 0.285,-0.478c-0.036,-0.086 -0.041,-0.086 -0.107,0.01c-0.224,0.315 -0.269,0.29 -0.102,-0.051c0.071,-0.132 0.127,-0.274 0.127,-0.315c0,-0.112 -0.102,-0.076 -0.163,0.061c-0.081,0.178 -0.132,0.158 -0.224,-0.076c-0.097,-0.239 -0.198,-0.274 -0.147,-0.051c0.025,0.117 0.015,0.152 -0.046,0.152c-0.046,0 -0.081,0.036 -0.081,0.076c0,0.127 -0.239,-0.015 -0.31,-0.188c-0.066,-0.163 -0.163,-0.163 -0.188,0c-0.02,0.132 -0.051,0.137 -0.173,0.025c-0.071,-0.061 -0.107,-0.071 -0.152,-0.025c-0.086,0.086 -0.01,0.203 0.188,0.3c0.097,0.046 0.188,0.122 0.203,0.173c0.015,0.046 0.127,0.168 0.249,0.269c0.163,0.132 0.234,0.229 0.259,0.371c0.041,0.224 0.239,0.63 0.351,0.722c0.046,0.041 0.081,0.086 0.081,0.112c0,0.051 -0.696,0.889 -0.884,1.057l-0.132,0.122l0,-0.158c0,-0.097 0.061,-0.249 0.158,-0.381c0.173,-0.244 0.259,-0.645 0.142,-0.645c-0.041,0 -0.137,0.107 -0.213,0.239c-0.137,0.224 -0.147,0.229 -0.229,0.142c-0.066,-0.066 -0.071,-0.097 -0.02,-0.112c0.036,-0.015 0.061,-0.112 0.061,-0.224c0,-0.173 0.015,-0.198 0.117,-0.198c0.147,0 0.462,-0.325 0.422,-0.437c-0.02,-0.046 -0.066,-0.071 -0.107,-0.051c-0.041,0.015 -0.076,0 -0.076,-0.036c-0.005,-0.086 -0.29,-0.391 -0.371,-0.391c-0.081,0 -0.234,-0.315 -0.259,-0.534c-0.01,-0.081 -0.041,-0.158 -0.076,-0.168c-0.091,-0.03 -0.219,0.325 -0.183,0.513c0.025,0.132 0.005,0.188 -0.097,0.285c-0.137,0.127 -0.173,0.259 -0.076,0.259c0.03,0 0.041,0.041 0.02,0.097c-0.015,0.051 0.005,0.122 0.051,0.158c0.097,0.081 0.102,0.254 0.005,0.254c-0.041,0 -0.122,-0.071 -0.188,-0.158c-0.081,-0.112 -0.122,-0.142 -0.168,-0.097c-0.041,0.041 -0.036,0.091 0.03,0.203c0.046,0.081 0.071,0.188 0.061,0.239c-0.061,0.219 0.325,0.773 0.595,0.854c0.127,0.041 0.122,0.112 -0.056,0.574c-0.102,0.269 -0.213,0.457 -0.351,0.59l-0.203,0.198l-0.178,-0.147c-0.188,-0.158 -0.513,-0.732 -0.564,-1.006c-0.025,-0.127 0.025,-0.295 0.249,-0.803c0.158,-0.351 0.315,-0.762 0.356,-0.91c0.056,-0.224 0.086,-0.269 0.168,-0.259c0.158,0.02 0.219,-0.097 0.229,-0.457c0.01,-0.376 -0.02,-0.447 -0.193,-0.447c-0.147,0 -0.168,-0.127 -0.02,-0.168c0.061,-0.015 0.102,-0.071 0.102,-0.127c0,-0.081 -0.041,-0.107 -0.163,-0.122c-0.127,-0.01 -0.163,-0.036 -0.152,-0.107c0.005,-0.046 0.015,-0.127 0.025,-0.173c0.015,-0.122 -0.132,-0.137 -0.234,-0.025c-0.117,0.132 -0.107,0.229 0.041,0.407c0.071,0.086 0.127,0.203 0.127,0.269c-0.005,0.117 -0.005,0.117 -0.127,-0.03c-0.071,-0.086 -0.127,-0.188 -0.127,-0.229c0,-0.041 -0.046,-0.152 -0.107,-0.249c-0.097,-0.158 -0.112,-0.163 -0.183,-0.091c-0.071,0.066 -0.071,0.102 -0.015,0.239c0.036,0.086 0.112,0.178 0.163,0.208c0.056,0.03 0.091,0.066 0.076,0.076c-0.01,0.015 -0.091,-0.015 -0.178,-0.066c-0.086,-0.051 -0.173,-0.071 -0.198,-0.051c-0.061,0.066 0.056,0.208 0.259,0.31c0.102,0.051 0.183,0.102 0.173,0.107c-0.036,0.041 -0.539,-0.086 -0.742,-0.183c-0.188,-0.091 -0.219,-0.127 -0.193,-0.229c0.036,-0.132 -0.061,-0.219 -0.127,-0.117c-0.112,0.173 -0.142,0.422 -0.086,0.651c0.03,0.127 0.071,0.244 0.091,0.259c0.02,0.015 0.025,0.117 0.01,0.224l-0.025,0.198l-0.117,-0.198c-0.076,-0.122 -0.122,-0.28 -0.122,-0.407c0,-0.127 -0.03,-0.239 -0.076,-0.274c-0.041,-0.036 -0.076,-0.137 -0.076,-0.234c0,-0.091 -0.02,-0.178 -0.046,-0.198c-0.081,-0.046 -0.168,0.173 -0.147,0.361c0.025,0.234 -0.03,0.219 -0.091,-0.015c-0.03,-0.127 -0.081,-0.198 -0.142,-0.208c-0.086,-0.02 -0.091,0 -0.061,0.188c0.03,0.193 0.025,0.208 -0.056,0.163c-0.173,-0.091 -0.295,-0.269 -0.295,-0.432c0,-0.107 -0.025,-0.158 -0.076,-0.158c-0.056,0 -0.076,0.061 -0.076,0.264c0.005,0.147 -0.015,0.269 -0.041,0.269c-0.066,0 -0.005,0.346 0.071,0.437c0.036,0.046 0.102,0.061 0.163,0.041c0.086,-0.025 0.097,-0.015 0.071,0.086c-0.02,0.066 -0.036,0.152 -0.036,0.193c0,0.056 -0.015,0.056 -0.076,0.005c-0.041,-0.036 -0.071,-0.102 -0.066,-0.147c0.01,-0.056 -0.046,-0.097 -0.183,-0.132c-0.137,-0.03 -0.229,-0.091 -0.28,-0.188c-0.097,-0.168 -0.193,-0.183 -0.219,-0.03c-0.015,0.102 -0.02,0.107 -0.102,0.025c-0.112,-0.112 -0.168,-0.107 -0.295,0.025l-0.102,0.112l-0.173,-0.168c-0.198,-0.188 -0.28,-0.142 -0.158,0.097c0.071,0.142 0.025,0.224 -0.056,0.097c-0.02,-0.036 -0.112,-0.046 -0.239,-0.03c-0.163,0.02 -0.224,0.005 -0.32,-0.091c-0.066,-0.066 -0.122,-0.152 -0.122,-0.188c0,-0.046 -0.015,-0.046 -0.056,-0.005c-0.081,0.081 -0.02,0.295 0.117,0.422c0.071,0.066 0.178,0.102 0.305,0.102c0.325,0 0.681,0.249 0.635,0.442c-0.015,0.076 -0.03,0.066 -0.076,-0.051c-0.061,-0.147 -0.198,-0.183 -0.244,-0.061c-0.015,0.041 0.015,0.158 0.076,0.254c0.127,0.213 0.132,0.295 0.036,0.376c-0.051,0.046 -0.081,0.041 -0.132,-0.02c-0.036,-0.041 -0.091,-0.076 -0.127,-0.076c-0.036,0 -0.076,-0.036 -0.097,-0.076c-0.041,-0.112 -0.127,-0.091 -0.178,0.036l-0.041,0.112l-0.061,-0.112c-0.066,-0.127 -0.239,-0.234 -0.31,-0.188c-0.03,0.02 -0.02,0.076 0.02,0.142c0.107,0.173 0.147,0.341 0.081,0.341c-0.036,0 -0.071,-0.046 -0.086,-0.102c-0.036,-0.142 -0.137,-0.102 -0.158,0.066c-0.015,0.122 -0.03,0.132 -0.117,0.081c-0.061,-0.03 -0.142,-0.041 -0.183,-0.025c-0.071,0.03 -0.066,0.051 0.036,0.158c0.173,0.183 0.417,0.213 0.605,0.081c0.112,-0.081 0.178,-0.097 0.244,-0.061c0.051,0.025 0.269,0.086 0.488,0.132c0.574,0.122 0.925,0.325 1.443,0.808c0.325,0.31 0.462,0.478 0.508,0.62c0.03,0.107 0.051,0.203 0.046,0.208c-0.005,0.005 -0.132,-0.071 -0.28,-0.168c-0.274,-0.183 -0.854,-0.478 -0.945,-0.478c-0.03,0 -0.051,-0.137 -0.051,-0.305c0,-0.224 -0.025,-0.325 -0.091,-0.391c-0.086,-0.086 -0.097,-0.086 -0.178,0.015c-0.076,0.102 -0.264,0.224 -0.335,0.224c-0.015,0 -0.03,-0.041 -0.03,-0.097c0,-0.254 -0.249,-0.213 -0.259,0.046c-0.005,0.147 -0.025,0.102 -0.071,-0.168c-0.036,-0.219 -0.158,-0.254 -0.208,-0.061c-0.015,0.071 -0.041,0.127 -0.056,0.127c-0.015,0 -0.132,-0.071 -0.254,-0.158c-0.305,-0.203 -0.396,-0.127 -0.158,0.132c0.102,0.112 0.239,0.198 0.346,0.224c0.132,0.025 0.203,0.086 0.305,0.259c0.097,0.158 0.168,0.224 0.234,0.219c0.051,-0.005 0.152,0.01 0.224,0.036c0.071,0.025 0.198,0.076 0.28,0.107l0.152,0.056l-0.305,0.076c-0.168,0.036 -0.493,0.081 -0.727,0.102c-0.341,0.02 -0.462,0.01 -0.625,-0.061c-0.107,-0.051 -0.198,-0.112 -0.198,-0.137c0,-0.025 0.046,-0.02 0.097,0.01c0.127,0.066 0.376,0.066 0.442,0c0.041,-0.041 0.097,-0.036 0.193,0.005c0.224,0.102 0.259,0 0.107,-0.29c-0.147,-0.274 -0.244,-0.32 -0.269,-0.122c-0.015,0.127 -0.137,0.254 -0.239,0.254c-0.03,0 -0.061,-0.071 -0.066,-0.163c-0.01,-0.086 -0.041,-0.193 -0.071,-0.234c-0.091,-0.112 -0.3,-0.178 -0.366,-0.112c-0.025,0.025 -0.091,0.051 -0.137,0.051c-0.137,0 -0.163,0.158 -0.051,0.31c0.127,0.168 0.076,0.213 -0.173,0.168c-0.142,-0.025 -0.178,-0.015 -0.178,0.046c0,0.183 0.412,0.315 0.549,0.178c0.046,-0.046 0.086,-0.036 0.168,0.056c0.061,0.066 0.208,0.163 0.33,0.213c0.193,0.086 0.315,0.097 1.225,0.076l1.006,-0.025l0.346,0.224c0.193,0.122 0.371,0.229 0.402,0.239c0.03,0.01 0.005,0.091 -0.056,0.193c-0.229,0.396 -0.305,1.128 -0.564,5.692c-0.056,0.991 -0.112,1.926 -0.127,2.069l-0.025,0.269Z" style="fill:url(#_Linear1);"/><defs><linearGradient id="_Linear1" x1="0" y1="0" x2="1" y2="0" gradientUnits="userSpaceOnUse" gradientTransform="matrix(0,11.959217,-11.959217,0,7.68,1.065579)"><stop offset="0" style="stop-color:#fd2a21;stop-opacity:1"/><stop offset="1" style="stop-color:#f9e224;stop-opacity:1"/></linearGradient></defs></svg>